<?xml version="1.0" encoding="UTF-8" standalone="no"?>
<!DOCTYPE svg PUBLIC "-//W3C//DTD SVG 1.1//EN" "http://www.w3.org/Graphics/SVG/1.1/DTD/svg11.dtd">
<svg width="100%" height="100%" viewBox="0 0 717 625" version="1.1" xmlns="http://www.w3.org/2000/svg" xmlns:xlink="http://www.w3.org/1999/xlink" xml:space="preserve" xmlns:serif="http://www.serif.com/" style="fill-rule:evenodd;clip-rule:evenodd;">
    <g transform="matrix(4.16667,0,0,4.16667,0,0)">
        <clipPath id="_clip1">
            <rect x="0" y="0" width="172" height="148.35"/>
        </clipPath>
        <g clip-path="url(#_clip1)">
            <g transform="matrix(0.716667,0,0,-0.716667,0.358333,197.442)">
                <path d="M17.63,205L94.63,205C95.713,205 96.786,204.894 97.849,204.683C98.912,204.472 99.943,204.159 100.944,203.744C101.945,203.329 102.896,202.821 103.797,202.219C104.698,201.617 105.531,200.933 106.297,200.167C107.063,199.401 107.747,198.568 108.349,197.667C108.951,196.766 109.459,195.815 109.874,194.814C110.289,193.813 110.602,192.782 110.813,191.719C111.024,190.656 111.13,189.583 111.13,188.5L111.13,86.5C111.13,85.417 111.024,84.344 110.813,83.281C110.602,82.218 110.289,81.187 109.874,80.186C109.459,79.185 108.951,78.234 108.349,77.333C107.747,76.432 107.063,75.599 106.297,74.833C105.531,74.067 104.698,73.383 103.797,72.781C102.896,72.179 101.945,71.671 100.944,71.256C99.943,70.841 98.912,70.528 97.849,70.317C96.786,70.106 95.713,70 94.63,70L17.63,70C16.547,70 15.474,70.106 14.411,70.317C13.348,70.528 12.317,70.841 11.316,71.256C10.315,71.671 9.364,72.179 8.463,72.781C7.562,73.383 6.729,74.067 5.963,74.833C5.197,75.599 4.513,76.432 3.911,77.333C3.309,78.234 2.801,79.185 2.386,80.186C1.971,81.187 1.658,82.218 1.447,83.281C1.236,84.344 1.13,85.417 1.13,86.5L1.13,188.5C1.13,189.583 1.236,190.656 1.447,191.719C1.658,192.782 1.971,193.813 2.386,194.814C2.801,195.815 3.309,196.766 3.911,197.667C4.513,198.568 5.197,199.401 5.963,200.167C6.729,200.933 7.562,201.617 8.463,202.219C9.364,202.821 10.315,203.329 11.316,203.744C12.317,204.159 13.348,204.472 14.411,204.683C15.474,204.894 16.547,205 17.63,205Z" style="fill:rgb(238,238,238);fill-opacity:0.18;fill-rule:nonzero;stroke:rgb(54,57,61);stroke-opacity:0.5;stroke-width:1px;"/>
            </g>
            <g transform="matrix(0.00419531,0,0,0.00484234,84.5698,76.6785)">
                <path d="M48,183C48,181.667 50,152.667 54,96C58,39.333 60,10.333 60,9L60,1L336,1C367.333,1 386.667,0.667 394,0C425.333,0 444,1.333 450,4C456,6.667 459,14.333 459,27C459,35 458.667,39.667 458,41C456.667,44.333 413,102.667 327,216C241,329.333 196.667,387.333 194,390L237,390C252.333,389.333 262.667,389 268,389C273.333,389 283,388.333 297,387C311,385.667 320.333,383.333 325,380C329.667,376.667 337.333,372.667 348,368C358.667,363.333 366,356.333 370,347C374,337.667 378.667,327.667 384,317C389.333,306.333 393,292.333 395,275C398.333,257 400,241.667 400,229C400,228.333 410.333,228 431,228L462,228L462,234C461.333,236 458.333,270.333 453,337C447.667,403.667 444.667,437.667 444,439L444,445L245,445C112.333,445 45,444.333 43,443C35.667,439.667 32,431 32,417L32,412C32,406.667 34.667,400.333 40,393C45.333,385.667 60,365.667 84,333C114,294.333 140.667,259.333 164,228L298,52L256,52C211.333,52.667 181,57 165,65C137.667,78.333 121,104 115,142C111.667,157.333 110,173 110,189C110,190.333 99.667,191 79,191L48,191L48,183Z" style="fill-rule:nonzero;stroke:black;stroke-opacity:0.05;stroke-width:22.07px;"/>
            </g>
            <g transform="matrix(0.716667,0,0,-0.716667,0.358333,147.992)">
                <path d="M144,205L221,205C222.083,205 223.156,204.894 224.219,204.683C225.282,204.472 226.313,204.159 227.314,203.744C228.315,203.329 229.266,202.821 230.167,202.219C231.068,201.617 231.901,200.933 232.667,200.167C233.433,199.401 234.117,198.568 234.719,197.667C235.321,196.766 235.829,195.815 236.244,194.814C236.659,193.813 236.972,192.782 237.183,191.719C237.394,190.656 237.5,189.583 237.5,188.5L237.5,17.5C237.5,16.417 237.394,15.344 237.183,14.281C236.972,13.218 236.659,12.187 236.244,11.186C235.829,10.185 235.321,9.234 234.719,8.333C234.117,7.432 233.433,6.599 232.667,5.833C231.901,5.067 231.068,4.383 230.167,3.781C229.266,3.179 228.315,2.671 227.314,2.256C226.313,1.841 225.282,1.528 224.219,1.317C223.156,1.106 222.083,1 221,1L144,1C142.917,1 141.844,1.106 140.781,1.317C139.718,1.528 138.687,1.841 137.686,2.256C136.685,2.671 135.734,3.179 134.833,3.781C133.932,4.383 133.099,5.067 132.333,5.833C131.567,6.599 130.883,7.432 130.281,8.333C129.679,9.234 129.171,10.185 128.756,11.186C128.341,12.187 128.028,13.218 127.817,14.281C127.606,15.344 127.5,16.417 127.5,17.5L127.5,188.5C127.5,189.583 127.606,190.656 127.817,191.719C128.028,192.782 128.341,193.813 128.756,194.814C129.171,195.815 129.679,196.766 130.281,197.667C130.883,198.568 131.567,199.401 132.333,200.167C133.099,200.933 133.932,201.617 134.833,202.219C135.734,202.821 136.685,203.329 137.686,203.744C138.687,204.159 139.718,204.472 140.781,204.683C141.844,204.894 142.917,205 144,205Z" style="fill:rgb(238,238,238);fill-opacity:0.18;fill-rule:nonzero;stroke:rgb(54,57,61);stroke-opacity:0.5;stroke-width:1px;"/>
            </g>
            <g transform="matrix(0,-0.716667,0.716667,0,10.3487,251.951)">
                <path d="M181.06,168.56L183.94,168.56" style="fill:none;fill-rule:nonzero;stroke:black;stroke-width:1px;stroke-miterlimit:10;"/>
            </g>
            <g transform="matrix(0.716667,0,0,-0.716667,0.358333,238.464)">
                <path d="M182.5,167.12L183.5,165.12L181.5,165.12L182.5,167.12Z" style="fill-rule:nonzero;stroke:black;stroke-width:1px;stroke-miterlimit:10;"/>
            </g>
            <g transform="matrix(0.716667,0,0,-0.716667,0.358333,251.192)">
                <path d="M226,170L139,170C137.333,170 136.843,170.76 137.53,172.28L139.97,177.72C140.657,179.24 141.833,180 143.5,180L221.5,180C223.167,180 224.343,179.24 225.03,177.72L227.47,172.28C228.157,170.76 227.667,170 226,170Z" style="fill:rgb(255,230,204);fill-rule:nonzero;"/>
            </g>
            <g transform="matrix(0.24,0,0,0.24,93.8614,94.6066)">
                <g transform="matrix(17.9167,0,0,17.9167,187.178,137.334)">
                </g>
                <text x="123.502px" y="137.334px" style="font-family:'Helvetica';font-size:17.917px;">Patchify</text>
            </g>
            <g transform="matrix(0,-0.716667,0.716667,0,-1.118,263.418)">
                <path d="M181.06,184.56L183.94,184.56" style="fill:none;fill-rule:nonzero;stroke:black;stroke-width:1px;stroke-miterlimit:10;"/>
            </g>
            <g transform="matrix(0.716667,0,0,-0.716667,0.358333,261.397)">
                <path d="M182.5,183.12L183.5,181.12L181.5,181.12L182.5,183.12Z" style="fill-rule:nonzero;stroke:black;stroke-width:1px;stroke-miterlimit:10;"/>
            </g>
            <g transform="matrix(0.716667,0,0,-0.716667,0.358333,274.125)">
                <path d="M136.5,196L228.5,196C228.699,196 228.89,195.962 229.074,195.886C229.258,195.81 229.42,195.701 229.561,195.561C229.701,195.42 229.81,195.258 229.886,195.074C229.962,194.89 230,194.699 230,194.5L230,187.5C230,187.301 229.962,187.11 229.886,186.926C229.81,186.742 229.701,186.58 229.561,186.439C229.42,186.299 229.258,186.19 229.074,186.114C228.89,186.038 228.699,186 228.5,186L136.5,186C136.301,186 136.11,186.038 135.926,186.114C135.742,186.19 135.58,186.299 135.439,186.439C135.299,186.58 135.19,186.742 135.114,186.926C135.038,187.11 135,187.301 135,187.5L135,194.5C135,194.699 135.038,194.89 135.114,195.074C135.19,195.258 135.299,195.42 135.439,195.561C135.58,195.701 135.742,195.81 135.926,195.886C136.11,195.962 136.301,196 136.5,196Z" style="fill:rgb(186,200,211);fill-rule:nonzero;"/>
            </g>
            <g transform="matrix(0,-0.716667,0.716667,0,24.682,237.618)">
                <path d="M181.06,148.56L183.94,148.56" style="fill:none;fill-rule:nonzero;stroke:black;stroke-width:1px;stroke-miterlimit:10;"/>
            </g>
            <g transform="matrix(0.716667,0,0,-0.716667,0.358333,209.797)">
                <path d="M182.5,147.12L183.5,145.12L181.5,145.12L182.5,147.12Z" style="fill-rule:nonzero;stroke:black;stroke-width:1px;stroke-miterlimit:10;"/>
            </g>
            <g transform="matrix(0.716667,0,0,-0.716667,0.358333,225.392)">
                <path d="M148.6,164L216.4,164C216.678,164 216.946,163.947 217.204,163.84C217.461,163.734 217.688,163.582 217.885,163.385C218.082,163.188 218.234,162.961 218.34,162.704C218.447,162.446 218.5,162.178 218.5,161.9L218.5,152.1C218.5,151.822 218.447,151.554 218.34,151.296C218.234,151.039 218.082,150.812 217.885,150.615C217.688,150.418 217.461,150.266 217.204,150.16C216.946,150.053 216.678,150 216.4,150L148.6,150C148.322,150 148.054,150.053 147.796,150.16C147.539,150.266 147.312,150.418 147.115,150.615C146.918,150.812 146.766,151.039 146.66,151.296C146.553,151.554 146.5,151.822 146.5,152.1L146.5,161.9C146.5,162.178 146.553,162.446 146.66,162.704C146.766,162.961 146.918,163.188 147.115,163.385C147.312,163.582 147.539,163.734 147.796,163.84C148.054,163.947 148.322,164 148.6,164Z" style="fill:rgb(218,232,252);fill-rule:nonzero;"/>
            </g>
            <g transform="matrix(0,-0.716667,0.716667,0,36.1487,226.151)">
                <path d="M181.06,132.56L183.94,132.56" style="fill:none;fill-rule:nonzero;stroke:black;stroke-width:1px;stroke-miterlimit:10;"/>
            </g>
            <g transform="matrix(0.716667,0,0,-0.716667,0.358333,186.864)">
                <path d="M182.5,131.12L183.5,129.12L181.5,129.12L182.5,131.12Z" style="fill-rule:nonzero;stroke:black;stroke-width:1px;stroke-miterlimit:10;"/>
            </g>
            <g transform="matrix(0.716667,0,0,-0.716667,0.358333,199.592)">
                <path d="M216,134L149,134C147.333,134 146.843,134.76 147.53,136.28L149.97,141.72C150.657,143.24 151.833,144 153.5,144L211.5,144C213.167,144 214.343,143.24 215.03,141.72L217.47,136.28C218.157,134.76 217.667,134 216,134Z" style="fill:rgb(225,213,231);fill-rule:nonzero;"/>
            </g>
            <g transform="matrix(0,-0.716667,0.716667,0,69.1153,193.185)">
                <path d="M181.06,86.56L183.94,86.56" style="fill:none;fill-rule:nonzero;stroke:black;stroke-width:1px;stroke-miterlimit:10;"/>
            </g>
            <g transform="matrix(0.716667,0,0,-0.716667,0.358333,120.93)">
                <path d="M182.5,85.12L183.5,83.12L181.5,83.12L182.5,85.12Z" style="fill-rule:nonzero;stroke:black;stroke-width:1px;stroke-miterlimit:10;"/>
            </g>
            <g transform="matrix(0.716667,0,0,-0.716667,0.358333,155.158)">
                <path d="M163.5,128L201.5,128C201.894,128 202.284,127.962 202.671,127.885C203.057,127.808 203.432,127.694 203.796,127.543C204.16,127.393 204.506,127.208 204.833,126.989C205.161,126.77 205.464,126.521 205.743,126.243C206.021,125.964 206.27,125.661 206.489,125.333C206.708,125.006 206.892,124.66 207.043,124.296C207.194,123.932 207.308,123.557 207.385,123.171C207.462,122.784 207.5,122.394 207.5,122L207.5,94C207.5,93.606 207.462,93.216 207.385,92.829C207.308,92.443 207.194,92.068 207.043,91.704C206.892,91.34 206.708,90.994 206.489,90.667C206.27,90.339 206.021,90.036 205.743,89.757C205.464,89.479 205.161,89.23 204.833,89.011C204.506,88.792 204.16,88.608 203.796,88.457C203.432,88.306 203.057,88.192 202.671,88.115C202.284,88.038 201.894,88 201.5,88L163.5,88C163.106,88 162.716,88.038 162.329,88.115C161.943,88.192 161.568,88.306 161.204,88.457C160.84,88.608 160.494,88.792 160.167,89.011C159.839,89.23 159.536,89.479 159.257,89.757C158.979,90.036 158.73,90.339 158.511,90.667C158.292,90.994 158.107,91.34 157.957,91.704C157.806,92.068 157.692,92.443 157.615,92.829C157.538,93.216 157.5,93.606 157.5,94L157.5,122C157.5,122.394 157.538,122.784 157.615,123.171C157.692,123.557 157.806,123.932 157.957,124.296C158.107,124.66 158.292,125.006 158.511,125.333C158.73,125.661 158.979,125.964 159.257,126.243C159.536,126.521 159.839,126.77 160.167,126.989C160.494,127.208 160.84,127.393 161.204,127.543C161.568,127.694 161.943,127.808 162.329,127.885C162.716,127.962 163.106,128 163.5,128Z" style="fill:rgb(218,232,252);fill-rule:nonzero;"/>
            </g>
            <g transform="matrix(0,-0.716667,0.716667,0,80.582,181.718)">
                <path d="M181.06,70.56L183.94,70.56" style="fill:none;fill-rule:nonzero;stroke:black;stroke-width:1px;stroke-miterlimit:10;"/>
            </g>
            <g transform="matrix(0.716667,0,0,-0.716667,0.358333,97.997)">
                <path d="M182.5,69.12L183.5,67.12L181.5,67.12L182.5,69.12Z" style="fill-rule:nonzero;stroke:black;stroke-width:1px;stroke-miterlimit:10;"/>
            </g>
            <g transform="matrix(0.716667,0,0,0.716667,0.358333,0.358332)">
                <path d="M216,72L149,72C147.333,72 146.843,72.76 147.53,74.28L149.97,79.72C150.657,81.24 151.833,82 153.5,82L211.5,82C213.167,82 214.343,81.24 215.03,79.72L217.47,74.28C218.157,72.76 217.667,72 216,72Z" style="fill:rgb(225,213,231);fill-rule:nonzero;"/>
            </g>
            <g transform="matrix(0,-0.716667,0.716667,0,94.9153,167.385)">
                <path d="M181.06,50.56L183.94,50.56" style="fill:none;fill-rule:nonzero;stroke:black;stroke-width:1px;stroke-miterlimit:10;"/>
            </g>
            <g transform="matrix(0.716667,0,0,-0.716667,0.358333,69.3303)">
                <path d="M182.5,49.12L183.5,47.12L181.5,47.12L182.5,49.12Z" style="fill-rule:nonzero;stroke:black;stroke-width:1px;stroke-miterlimit:10;"/>
            </g>
            <g transform="matrix(0.716667,0,0,-0.716667,0.358333,84.925)">
                <path d="M148.6,66L216.4,66C216.678,66 216.946,65.947 217.204,65.84C217.461,65.734 217.688,65.582 217.885,65.385C218.082,65.188 218.234,64.961 218.34,64.704C218.447,64.446 218.5,64.178 218.5,63.9L218.5,54.1C218.5,53.822 218.447,53.554 218.34,53.296C218.234,53.039 218.082,52.812 217.885,52.615C217.688,52.418 217.461,52.266 217.204,52.16C216.946,52.053 216.678,52 216.4,52L148.6,52C148.322,52 148.054,52.053 147.796,52.16C147.539,52.266 147.312,52.418 147.115,52.615C146.918,52.812 146.766,53.039 146.66,53.296C146.553,53.554 146.5,53.822 146.5,54.1L146.5,63.9C146.5,64.178 146.553,64.446 146.66,64.704C146.766,64.961 146.918,65.188 147.115,65.385C147.312,65.582 147.539,65.734 147.796,65.84C148.054,65.947 148.322,66 148.6,66Z" style="fill:rgb(218,232,252);fill-rule:nonzero;"/>
            </g>
            <g transform="matrix(0,-0.716667,0.716667,0,106.382,155.918)">
                <path d="M181.06,34.56L183.94,34.56" style="fill:none;fill-rule:nonzero;stroke:black;stroke-width:1px;stroke-miterlimit:10;"/>
            </g>
            <g transform="matrix(0.716667,0,0,-0.716667,0.358333,46.397)">
                <path d="M182.5,33.12L183.5,31.12L181.5,31.12L182.5,33.12Z" style="fill-rule:nonzero;stroke:black;stroke-width:1px;stroke-miterlimit:10;"/>
            </g>
            <g transform="matrix(0.716667,0,0,0.716667,0.358333,0.358336)">
                <path d="M226,36L139,36C137.333,36 136.843,36.76 137.53,38.28L139.97,43.72C140.657,45.24 141.833,46 143.5,46L221.5,46C223.167,46 224.343,45.24 225.03,43.72L227.47,38.28C228.157,36.76 227.667,36 226,36Z" style="fill:rgb(255,230,204);fill-rule:nonzero;"/>
            </g>
            <g transform="matrix(0.716667,0,0,-0.716667,0.358333,36.1917)">
                <path d="M136.5,30L228.5,30C228.699,30 228.89,29.962 229.074,29.886C229.258,29.81 229.42,29.701 229.561,29.561C229.701,29.42 229.81,29.258 229.886,29.074C229.962,28.89 230,28.699 230,28.5L230,21.5C230,21.301 229.962,21.11 229.886,20.926C229.81,20.742 229.701,20.58 229.561,20.439C229.42,20.299 229.258,20.19 229.074,20.114C228.89,20.038 228.699,20 228.5,20L136.5,20C136.301,20 136.11,20.038 135.926,20.114C135.742,20.19 135.58,20.299 135.439,20.439C135.299,20.58 135.19,20.742 135.114,20.926C135.038,21.11 135,21.301 135,21.5L135,28.5C135,28.699 135.038,28.89 135.114,29.074C135.19,29.258 135.299,29.42 135.439,29.561C135.58,29.701 135.742,29.81 135.926,29.886C136.11,29.962 136.301,30 136.5,30Z" style="fill:rgb(186,200,211);fill-rule:nonzero;"/>
            </g>
            <g transform="matrix(0,-0.716667,0.716667,0,-91.6832,172.853)">
                <path d="M54.69,184.56L57.57,184.56" style="fill:none;fill-rule:nonzero;stroke:black;stroke-width:1px;stroke-miterlimit:10;"/>
            </g>
            <g transform="matrix(0.716667,0,0,-0.716667,0.358333,261.397)">
                <path d="M56.13,183.12L57.13,181.12L55.13,181.12L56.13,183.12Z" style="fill-rule:nonzero;stroke:black;stroke-width:1px;stroke-miterlimit:10;"/>
            </g>
            <g transform="matrix(0.716667,0,0,-0.716667,0.358333,274.125)">
                <path d="M10.13,196L102.13,196C102.329,196 102.52,195.962 102.704,195.886C102.888,195.81 103.05,195.701 103.191,195.561C103.331,195.42 103.44,195.258 103.516,195.074C103.592,194.89 103.63,194.699 103.63,194.5L103.63,187.5C103.63,187.301 103.592,187.11 103.516,186.926C103.44,186.742 103.331,186.58 103.191,186.439C103.05,186.299 102.888,186.19 102.704,186.114C102.52,186.038 102.329,186 102.13,186L10.13,186C9.931,186 9.74,186.038 9.556,186.114C9.372,186.19 9.21,186.299 9.069,186.439C8.929,186.58 8.82,186.742 8.744,186.926C8.668,187.11 8.63,187.301 8.63,187.5L8.63,194.5C8.63,194.699 8.668,194.89 8.744,195.074C8.82,195.258 8.929,195.42 9.069,195.561C9.21,195.701 9.372,195.81 9.556,195.886C9.74,195.962 9.931,196 10.13,196Z" style="fill:rgb(186,200,211);fill-rule:nonzero;"/>
            </g>
            <g transform="matrix(0,-0.716667,0.716667,0,-65.8832,147.053)">
                <path d="M54.69,148.56L57.57,148.56" style="fill:none;fill-rule:nonzero;stroke:black;stroke-width:1px;stroke-miterlimit:10;"/>
            </g>
            <g transform="matrix(0.716667,0,0,-0.716667,0.358333,209.797)">
                <path d="M56.13,147.12L57.13,145.12L55.13,145.12L56.13,147.12Z" style="fill-rule:nonzero;stroke:black;stroke-width:1px;stroke-miterlimit:10;"/>
            </g>
            <g transform="matrix(0.716667,0,0,-0.716667,0.358333,225.392)">
                <path d="M22.23,164L90.03,164C90.308,164 90.576,163.947 90.834,163.84C91.091,163.734 91.318,163.582 91.515,163.385C91.712,163.188 91.864,162.961 91.97,162.704C92.077,162.446 92.13,162.178 92.13,161.9L92.13,152.1C92.13,151.822 92.077,151.554 91.97,151.296C91.864,151.039 91.712,150.812 91.515,150.615C91.318,150.418 91.091,150.266 90.834,150.16C90.576,150.053 90.308,150 90.03,150L22.23,150C21.952,150 21.684,150.053 21.426,150.16C21.169,150.266 20.942,150.418 20.745,150.615C20.548,150.812 20.396,151.039 20.29,151.296C20.183,151.554 20.13,151.822 20.13,152.1L20.13,161.9C20.13,162.178 20.183,162.446 20.29,162.704C20.396,162.961 20.548,163.188 20.745,163.385C20.942,163.582 21.169,163.734 21.426,163.84C21.684,163.947 21.952,164 22.23,164Z" style="fill:rgb(218,232,252);fill-rule:nonzero;"/>
            </g>
            <g transform="matrix(0,-0.716667,0.716667,0,-54.4165,135.586)">
                <path d="M54.69,132.56L57.57,132.56" style="fill:none;fill-rule:nonzero;stroke:black;stroke-width:1px;stroke-miterlimit:10;"/>
            </g>
            <g transform="matrix(0.716667,0,0,-0.716667,0.358333,186.864)">
                <path d="M56.13,131.12L57.13,129.12L55.13,129.12L56.13,131.12Z" style="fill-rule:nonzero;stroke:black;stroke-width:1px;stroke-miterlimit:10;"/>
            </g>
            <g transform="matrix(0.716667,0,0,-0.716667,0.358333,155.158)">
                <path d="M127.3,108L154.38,108" style="fill:none;fill-rule:nonzero;stroke:black;stroke-width:1px;stroke-miterlimit:10;"/>
            </g>
            <g transform="matrix(0.716667,0,0,-0.716667,0.358333,155.158)">
                <path d="M156.38,108L154.38,107L154.38,109L156.38,108Z" style="fill-rule:nonzero;stroke:black;stroke-width:1px;stroke-miterlimit:10;"/>
            </g>
            <g transform="matrix(0.716667,0,0,-0.716667,0.358333,155.158)">
                <path d="M37.13,128L75.13,128C75.524,128 75.914,127.962 76.301,127.885C76.687,127.808 77.062,127.694 77.426,127.543C77.79,127.393 78.136,127.208 78.463,126.989C78.791,126.77 79.094,126.521 79.373,126.243C79.651,125.964 79.9,125.661 80.119,125.333C80.338,125.006 80.522,124.66 80.673,124.296C80.824,123.932 80.938,123.557 81.015,123.171C81.092,122.784 81.13,122.394 81.13,122L81.13,94C81.13,93.606 81.092,93.216 81.015,92.829C80.938,92.443 80.824,92.068 80.673,91.704C80.522,91.34 80.338,90.994 80.119,90.667C79.9,90.339 79.651,90.036 79.373,89.757C79.094,89.479 78.791,89.23 78.463,89.011C78.136,88.792 77.79,88.608 77.426,88.457C77.062,88.306 76.687,88.192 76.301,88.115C75.914,88.038 75.524,88 75.13,88L37.13,88C36.736,88 36.346,88.038 35.959,88.115C35.573,88.192 35.198,88.306 34.834,88.457C34.47,88.608 34.124,88.792 33.797,89.011C33.469,89.23 33.166,89.479 32.887,89.757C32.609,90.036 32.36,90.339 32.141,90.667C31.922,90.994 31.737,91.34 31.587,91.704C31.436,92.068 31.322,92.443 31.245,92.829C31.168,93.216 31.13,93.606 31.13,94L31.13,122C31.13,122.394 31.168,122.784 31.245,123.171C31.322,123.557 31.436,123.932 31.587,124.296C31.737,124.66 31.922,125.006 32.141,125.333C32.36,125.661 32.609,125.964 32.887,126.243C33.166,126.521 33.469,126.77 33.797,126.989C34.124,127.208 34.47,127.393 34.834,127.543C35.198,127.694 35.573,127.808 35.959,127.885C36.346,127.962 36.736,128 37.13,128Z" style="fill:rgb(218,232,252);fill-rule:nonzero;"/>
            </g>
            <g transform="matrix(0,-0.716667,0.716667,0,-80.2165,161.386)">
                <path d="M54.69,168.56L57.57,168.56" style="fill:none;fill-rule:nonzero;stroke:black;stroke-width:1px;stroke-miterlimit:10;"/>
            </g>
            <g transform="matrix(0.716667,0,0,-0.716667,0.358333,238.464)">
                <path d="M56.13,167.12L57.13,165.12L55.13,165.12L56.13,167.12Z" style="fill-rule:nonzero;stroke:black;stroke-width:1px;stroke-miterlimit:10;"/>
            </g>
            <g transform="matrix(0.716667,0,0,-0.716667,0.358333,251.192)">
                <path d="M99.63,170L12.63,170C10.963,170 10.473,170.76 11.16,172.28L13.6,177.72C14.287,179.24 15.463,180 17.13,180L95.13,180C96.797,180 97.973,179.24 98.66,177.72L101.1,172.28C101.787,170.76 101.297,170 99.63,170Z" style="fill:rgb(255,230,204);fill-rule:nonzero;"/>
            </g>
            <g transform="matrix(0.716667,0,0,-0.716667,0.358333,199.592)">
                <path d="M89.63,134L22.63,134C20.963,134 20.473,134.76 21.16,136.28L23.6,141.72C24.287,143.24 25.463,144 27.13,144L85.13,144C86.797,144 87.973,143.24 88.66,141.72L91.1,136.28C91.787,134.76 91.297,134 89.63,134Z" style="fill:rgb(225,213,231);fill-rule:nonzero;"/>
            </g>
            <g transform="matrix(0.24,0,0,0.24,86.7722,103.321)">
                <g transform="matrix(17.9167,0,0,17.9167,252.517,148.8)">
                </g>
                <text x="114.174px" y="148.8px" style="font-family:'Helvetica';font-size:17.917px;">Frame-wise Input</text>
            </g>
            <g transform="matrix(0.24,0,0,0.24,86.4999,84.8026)">
                <g transform="matrix(17.9167,0,0,17.9167,258.176,124.434)">
                </g>
                <text x="113.816px" y="124.434px" style="font-family:'Helvetica';font-size:17.917px;">Local <tspan x="161.296px 171.581px 177.545px " y="124.434px 124.434px 124.434px ">Tra</tspan>nsformer</text>
            </g>
            <g transform="matrix(0.24,0,0,0.24,89.4955,74.9986)">
                <g transform="matrix(17.9167,0,0,17.9167,229.255,111.534)">
                </g>
                <text x="117.757px" y="111.534px" style="font-family:'Helvetica';font-size:17.917px;">Pixelunshufﬂe</text>
            </g>
            <g transform="matrix(0.24,0,0,0.24,90.8317,55.9352)">
                <text x="142.098px" y="86.45px" style="font-family:'Helvetica';font-size:17.917px;">Global</text>
                <g transform="matrix(17.9167,0,0,17.9167,216.395,110.325)">
                </g>
                <text x="119.515px" y="110.325px" style="font-family:'Helvetica';font-size:17.917px;">T<tspan x="129.801px 135.765px " y="110.325px 110.325px ">ra</tspan>nsformer</text>
            </g>
            <g transform="matrix(0.24,0,0,0.24,91.3168,41.2292)">
                <g transform="matrix(17.9167,0,0,17.9167,211.728,67.1004)">
                </g>
                <text x="120.154px" y="67.1px" style="font-family:'Helvetica';font-size:17.917px;">Pixelshufﬂe</text>
            </g>
            <g transform="matrix(0.24,0,0,0.24,86.4999,31.4252)">
                <g transform="matrix(17.9167,0,0,17.9167,258.176,54.2004)">
                </g>
                <text x="113.816px" y="54.2px" style="font-family:'Helvetica';font-size:17.917px;">Local <tspan x="161.296px 171.581px 177.545px " y="54.2px 54.2px 54.2px ">Tra</tspan>nsformer</text>
            </g>
            <g transform="matrix(0.24,0,0,0.24,91.9465,21.6212)">
                <g transform="matrix(17.9167,0,0,17.9167,205.585,41.3004)">
                </g>
                <text x="120.982px" y="41.3px" style="font-family:'Helvetica';font-size:17.917px;">Unpatchify</text>
            </g>
            <g transform="matrix(0.24,0,0,0.24,89.887,12.9066)">
                <g transform="matrix(17.9167,0,0,17.9167,222.49,29.8337)">
                </g>
                <text x="118.272px" y="29.834px" style="font-family:'Helvetica';font-size:17.917px;">V<tspan x="129.903px 133.878px " y="29.834px 29.834px ">id</tspan>eo Output</text>
            </g>
            <g transform="matrix(0.24,0,0,0.24,23.9568,42.3106)">
                <g transform="matrix(17.9167,0,0,17.9167,103.138,68.5669)">
                </g>
                <text x="31.522px" y="68.567px" style="font-family:'Helvetica-Bold', 'Helvetica';font-weight:700;font-size:17.917px;">Encoder</text>
            </g>
            <g transform="matrix(0.24,0,0,0.24,93.1295,4.7286)">
                <g transform="matrix(17.9167,0,0,17.9167,194.19,19.1169)">
                </g>
                <text x="122.539px" y="19.117px" style="font-family:'Helvetica-Bold', 'Helvetica';font-weight:700;font-size:17.917px;">Decoder</text>
            </g>
            <g transform="matrix(0.24,0,0,0.24,18.1442,103.321)">
                <g transform="matrix(17.9167,0,0,17.9167,162.217,148.8)">
                </g>
                <text x="23.874px" y="148.8px" style="font-family:'Helvetica';font-size:17.917px;">Frame-wise Input</text>
            </g>
            <g transform="matrix(0.24,0,0,0.24,17.3272,84.8026)">
                <g transform="matrix(17.9167,0,0,17.9167,167.16,124.434)">
                </g>
                <text x="22.799px" y="124.434px" style="font-family:'Helvetica';font-size:17.917px;">Local <tspan x="70.279px 80.564px 86.528px " y="124.434px 124.434px 124.434px ">Tra</tspan>nsformer</text>
            </g>
            <g transform="matrix(0.24,0,0,0.24,21.659,55.9352)">
                <text x="51.081px" y="86.45px" style="font-family:'Helvetica';font-size:17.917px;">Global</text>
                <g transform="matrix(17.9167,0,0,17.9167,125.378,110.325)">
                </g>
                <text x="28.499px" y="110.325px" style="font-family:'Helvetica';font-size:17.917px;">T<tspan x="38.784px 44.748px " y="110.325px 110.325px ">ra</tspan>nsformer</text>
            </g>
            <g transform="matrix(0.24,0,0,0.24,24.6887,94.6066)">
                <g transform="matrix(17.9167,0,0,17.9167,96.161,137.334)">
                </g>
                <text x="32.485px" y="137.334px" style="font-family:'Helvetica';font-size:17.917px;">Patchify</text>
            </g>
            <g transform="matrix(0.24,0,0,0.24,20.3229,74.9986)">
                <g transform="matrix(17.9167,0,0,17.9167,138.239,111.534)">
                </g>
                <text x="26.741px" y="111.534px" style="font-family:'Helvetica';font-size:17.917px;">Pixelunshufﬂe</text>
            </g>
            <g transform="matrix(0.716667,0,0,-0.716667,0.358333,155.158)">
                <path d="M81.13,108L108.18,108" style="fill:none;fill-rule:nonzero;stroke:black;stroke-width:1px;stroke-miterlimit:10;"/>
            </g>
            <g transform="matrix(0.716667,0,0,-0.716667,0.358333,155.158)">
                <path d="M110.18,108L108.18,107L108.18,109L110.18,108Z" style="fill-rule:nonzero;stroke:black;stroke-width:1px;stroke-miterlimit:10;"/>
            </g>
            <g transform="matrix(0.716667,0,0,-0.716667,0.358333,155.158)">
                <path d="M127.3,108C127.3,107.475 127.249,106.954 127.146,106.439C127.044,105.924 126.892,105.424 126.691,104.939C126.49,104.453 126.244,103.992 125.952,103.555C125.66,103.119 125.328,102.715 124.957,102.343C124.585,101.972 124.181,101.64 123.745,101.348C123.308,101.056 122.847,100.81 122.361,100.609C121.876,100.408 121.376,100.256 120.861,100.154C120.346,100.051 119.825,100 119.3,100C118.775,100 118.254,100.051 117.739,100.154C117.224,100.256 116.724,100.408 116.239,100.609C115.753,100.81 115.292,101.056 114.855,101.348C114.419,101.64 114.015,101.972 113.643,102.343C113.272,102.715 112.94,103.119 112.648,103.555C112.356,103.992 112.11,104.453 111.909,104.939C111.708,105.424 111.556,105.924 111.454,106.439C111.351,106.954 111.3,107.475 111.3,108C111.3,108.525 111.351,109.046 111.454,109.561C111.556,110.076 111.708,110.576 111.909,111.061C112.11,111.547 112.356,112.008 112.648,112.445C112.94,112.881 113.272,113.285 113.643,113.657C114.015,114.028 114.419,114.36 114.855,114.652C115.292,114.944 115.753,115.19 116.239,115.391C116.724,115.592 117.224,115.744 117.739,115.846C118.254,115.949 118.775,116 119.3,116C119.825,116 120.346,115.949 120.861,115.846C121.376,115.744 121.876,115.592 122.361,115.391C122.847,115.19 123.308,114.944 123.745,114.652C124.181,114.36 124.585,114.028 124.957,113.657C125.328,113.285 125.66,112.881 125.952,112.445C126.244,112.008 126.49,111.547 126.691,111.061C126.892,110.576 127.044,110.076 127.146,109.561C127.249,109.046 127.3,108.525 127.3,108Z" style="fill:none;fill-rule:nonzero;stroke:black;stroke-width:1px;"/>
            </g>
        </g>
    </g>
</svg>
